<?xml version="1.0" encoding="UTF-8" standalone="yes"?>
<svg version="1.2" width="640px" height="640px" fill-rule="evenodd" baseProfile="tiny-ps" xmlns="http://www.w3.org/2000/svg">
  <title>bimi-svg-tiny-12-ps</title>
  <g>
    <path fill="#191919" d="M -0.5,-0.5 C 212.833,-0.5 426.167,-0.5 639.5,-0.5C 639.5,212.833 639.5,426.167 639.5,639.5C 426.167,639.5 212.833,639.5 -0.5,639.5C -0.5,426.167 -0.5,212.833 -0.5,-0.5 Z"/>
  </g>
  <g>
    <path fill="#fefefe" d="M 204.5,131.5 C 208.525,132.306 212.525,133.472 216.5,135C 221.846,138.671 227.18,142.338 232.5,146C 244.111,159.264 255.278,172.764 266,186.5C 267.182,188.357 268.849,189.357 271,189.5C 298.245,182.997 325.745,181.831 353.5,186C 359.119,187.943 364.619,190.109 370,192.5C 378.557,179.606 387.89,167.272 398,155.5C 406.852,145.991 417.352,138.825 429.5,134C 434.975,132.598 439.642,133.931 443.5,138C 448.223,143.68 451.39,150.18 453,157.5C 458.395,179.197 460.729,201.197 460,223.5C 458.68,233.742 456.347,243.742 453,253.5C 449.157,261.85 444.657,269.85 439.5,277.5C 457.877,304.044 463.71,333.378 457,365.5C 453.629,377.962 447.129,388.462 437.5,397C 409.639,405.172 388.472,422.005 374,447.5C 373.359,476.791 358.859,494.625 330.5,501C 314.903,502.846 300.236,500.18 286.5,493C 272.793,480.392 265.96,464.559 266,445.5C 254.831,428.665 240.998,414.498 224.5,403C 217.681,400.529 210.681,398.696 203.5,397.5C 195.238,391.731 189.405,384.065 186,374.5C 176.857,339.037 181.69,305.703 200.5,274.5C 183.177,251.46 176.011,225.46 179,196.5C 180.793,176.486 185.793,157.486 194,139.5C 196.831,135.821 200.331,133.154 204.5,131.5 Z"/>
  </g>
  <g>
    <path fill="#1a1a1a" d="M 382.5,304.5 C 393.512,302.66 402.346,305.994 409,314.5C 409.363,332.837 400.863,345.337 383.5,352C 374.132,353.898 365.632,352.065 358,346.5C 354.619,342.753 353.286,338.419 354,333.5C 359.503,319.763 369.003,310.097 382.5,304.5 Z"/>
  </g>
  <g>
    <path fill="#1a1a1a" d="M 247.5,304.5 C 268.583,305.076 281.916,315.576 287.5,336C 286.243,345.258 280.909,350.591 271.5,352C 253.796,353.316 241.296,345.816 234,329.5C 229.149,315.858 233.649,307.525 247.5,304.5 Z"/>
  </g>
  <g>
    <path fill="#1a1a1a" d="M 313.5,434.5 C 323.587,433.066 332.587,435.4 340.5,441.5C 344.312,447.677 344.478,454.011 341,460.5C 338.163,464.843 335.33,469.176 332.5,473.5C 322.551,481.005 313.885,479.672 306.5,469.5C 301.994,463.658 298.994,457.158 297.5,450C 298.129,447.007 299.296,444.173 301,441.5C 304.938,438.654 309.105,436.321 313.5,434.5 Z"/>
  </g>
</svg>